<svg xmlns="http://www.w3.org/2000/svg" xmlns:xlink="http://www.w3.org/1999/xlink" viewBox="0,0,256,256" width="50px" height="50px" fill-rule="nonzero"><g fill="#ffffff" fill-rule="nonzero" stroke="none" stroke-width="1" stroke-linecap="butt" stroke-linejoin="miter" stroke-miterlimit="10" stroke-dasharray="" stroke-dashoffset="0" font-family="none" font-weight="none" font-size="none" text-anchor="none" style="mix-blend-mode: normal"><g transform="scale(5.12,5.12)"><path d="M39,14v2h8v-2zM21,17v2h8v-2zM39,17v2h8v-2zM21,20v2h8v-2zM39,20v2h8v-2zM3,23v2h8v-2zM21,23v2h8v-2zM30,23v2h8v-2zM39,23v2h8v-2zM3,26v2h8v-2zM21,26v2h8v-2zM30,26v2h8v-2zM39,26v2h8v-2zM3,29v2h8v-2zM12,29v2h8v-2zM21,29v2h8v-2zM30,29v2h8v-2zM39,29v2h8v-2zM3,32v2h8v-2zM12,32v2h8v-2zM21,32v2h8v-2zM30,32v2h8v-2zM39,32v2h8v-2zM3,35v2h8v-2zM12,35v2h8v-2zM21,35v2h8v-2zM30,35v2h8v-2zM39,35v2h8v-2z"></path></g></g></svg>