<svg xmlns="http://www.w3.org/2000/svg" xmlns:xlink="http://www.w3.org/1999/xlink" viewBox="0,0,256,256" width="50px" height="50px" fill-rule="nonzero"><g fill="#ffffff" fill-rule="nonzero" stroke="none" stroke-width="1" stroke-linecap="butt" stroke-linejoin="miter" stroke-miterlimit="10" stroke-dasharray="" stroke-dashoffset="0" font-family="none" font-weight="none" font-size="none" text-anchor="none" style="mix-blend-mode: normal"><g transform="scale(5.12,5.12)"><path d="M25,2c-12.6907,0 -23,10.3093 -23,23c0,12.69071 10.3093,23 23,23c12.69071,0 23,-10.30929 23,-23c0,-12.6907 -10.30929,-23 -23,-23zM25,4c11.60982,0 21,9.39018 21,21c0,11.60982 -9.39018,21 -21,21c-11.60982,0 -21,-9.39018 -21,-21c0,-11.60982 9.39018,-21 21,-21zM34.05273,12c-0.074,-0.00376 -0.14994,0.00212 -0.22656,0.01563l-13.69531,2.59375c-0.654,0.115 -1.13086,0.6817 -1.13086,1.3457v13.26758c0,0.457 -0.31091,0.85575 -0.75391,0.96875l-3.44531,0.87891l-0.29101,0.07031c-1.31,0.39 -2.30047,1.52016 -2.48047,2.91016c-0.043,0.324 -0.04023,0.64766 0.00976,0.97266c0.273,1.763 1.94156,2.97656 3.72656,2.97656h0.09961c2.835,0 5.13477,-2.29977 5.13477,-5.13477v-10.53711c0,-0.676 0.48539,-1.25409 1.15039,-1.37109l9.67578,-1.88281c0.613,-0.108 1.17383,0.36238 1.17383,0.98438v6.16406c0,0.457 -0.31091,0.85575 -0.75391,0.96875l-3.44531,0.87891l-0.29102,0.07031c-1.31,0.39 -2.30047,1.52016 -2.48047,2.91016c-0.043,0.324 -0.04023,0.64766 0.00977,0.97266c0.273,1.763 1.94156,2.97656 3.72656,2.97656h0.09961c2.835,0 5.13477,-2.29977 5.13477,-5.13477v-16.86523c0,-0.54425 -0.42923,-0.97369 -0.94727,-1z"></path></g></g></svg>